Normalized EMG Linear Envelopes
nRows=116
nColumns=4

endheader
time	 med_gas_r	  soleus_r	 tib_ant_r	
4.0625	  0.007475	  0.006760	  0.001707	
4.125	  0.007422	  0.006824	  0.001718	
4.1875	  0.007417	  0.006929	  0.001773	
4.25	  0.007603	  0.006885	  0.001813	
4.3125	  0.007846	  0.006809	  0.001813	
4.375	  0.008172	  0.006799	  0.001791	
4.4375	  0.008230	  0.006847	  0.001771	
4.5	  0.008179	  0.006914	  0.001770	
4.5625	  0.008263	  0.006920	  0.001785	
4.625	  0.008386	  0.006801	  0.001797	
4.6875	  0.008284	  0.006697	  0.001784	
4.75	  0.008024	  0.006625	  0.001765	
4.8125	  0.007794	  0.006632	  0.001770	
4.875	  0.007576	  0.006713	  0.001812	
4.9375	  0.007427	  0.006759	  0.001889	
5	  0.007392	  0.006714	  0.001935	
5.0625	  0.007376	  0.006626	  0.001942	
5.125	  0.007519	  0.006479	  0.001924	
5.1875	  0.007916	  0.006432	  0.001889	
5.25	  0.008487	  0.006626	  0.001869	
5.3125	  0.009101	  0.007046	  0.001880	
5.375	  0.009556	  0.007538	  0.001903	
5.4375	  0.010009	  0.007715	  0.001897	
5.5	  0.010278	  0.006902	  0.001778	
5.5625	  0.009855	  0.004459	  0.001488	
5.625	  0.008420	 -0.000201	  0.000971	
5.6875	  0.006198	 -0.006994	  0.000283	
5.75	  0.003809	 -0.013329	 -0.000206	
5.8125	  0.002074	 -0.011682	  0.000411	
5.875	  0.002919	  0.012333	  0.003687	
5.9375	  0.010038	  0.078543	  0.011534	
6	  0.028379	  0.201796	  0.024997	
6.0625	  0.061555	  0.368004	  0.041874	
6.125	  0.109540	  0.522192	  0.055517	
6.1875	  0.173906	  0.632774	  0.061730	
6.25	  0.246352	  0.695488	  0.061805	
6.3125	  0.302967	  0.705450	  0.057337	
6.375	  0.325949	  0.672905	  0.049703	
6.4375	  0.327632	  0.617668	  0.042628	
6.5	  0.336335	  0.574750	  0.040556	
6.5625	  0.377794	  0.547062	  0.044142	
6.625	  0.448143	  0.514732	  0.050399	
6.6875	  0.518216	  0.474095	  0.055306	
6.75	  0.556782	  0.426326	  0.055987	
6.8125	  0.552185	  0.374454	  0.052281	
6.875	  0.525213	  0.336603	  0.046933	
6.9375	  0.504281	  0.324002	  0.042310	
7	  0.501824	  0.327236	  0.039838	
7.0625	  0.521372	  0.327492	  0.040070	
7.125	  0.561675	  0.328909	  0.043461	
7.1875	  0.617914	  0.342588	  0.048537	
7.25	  0.659702	  0.375311	  0.053717	
7.3125	  0.671888	  0.406629	  0.057618	
7.375	  0.672602	  0.433892	  0.060270	
7.4375	  0.679623	  0.447621	  0.062307	
7.5	  0.700878	  0.448065	  0.062654	
7.5625	  0.719233	  0.445528	  0.060685	
7.625	  0.724904	  0.456706	  0.057761	
7.6875	  0.711903	  0.473070	  0.054989	
7.75	  0.686402	  0.477163	  0.053782	
7.8125	  0.663599	  0.449050	  0.054560	
7.875	  0.651180	  0.408751	  0.056400	
7.9375	  0.649934	  0.374533	  0.058429	
8	  0.653849	  0.353885	  0.059866	
8.0625	  0.668333	  0.352388	  0.061090	
8.125	  0.701664	  0.351541	  0.061444	
8.1875	  0.747743	  0.339965	  0.060876	
8.25	  0.792616	  0.331053	  0.059406	
8.3125	  0.815750	  0.338565	  0.056462	
8.375	  0.813397	  0.363886	  0.053805	
8.4375	  0.788938	  0.400285	  0.052507	
8.5	  0.749267	  0.449912	  0.054098	
8.5625	  0.719943	  0.505447	  0.059366	
8.625	  0.717840	  0.543135	  0.066435	
8.6875	  0.736271	  0.556351	  0.071402	
8.75	  0.745022	  0.532266	  0.072881	
8.8125	  0.735491	  0.501680	  0.072466	
8.875	  0.712326	  0.491892	  0.071080	
8.9375	  0.678738	  0.480455	  0.069475	
9	  0.653434	  0.471242	  0.068589	
9.0625	  0.646768	  0.469765	  0.067795	
9.125	  0.660349	  0.462532	  0.066907	
9.1875	  0.671001	  0.446054	  0.065922	
9.25	  0.666251	  0.423968	  0.064341	
9.3125	  0.648528	  0.384509	  0.061724	
9.375	  0.631980	  0.335015	  0.058502	
9.4375	  0.617096	  0.308111	  0.056164	
9.5	  0.602656	  0.307891	  0.055424	
9.5625	  0.598419	  0.322617	  0.056193	
9.625	  0.605456	  0.343873	  0.057372	
9.6875	  0.613351	  0.363402	  0.057457	
9.75	  0.611065	  0.389766	  0.056626	
9.8125	  0.601040	  0.422904	  0.055094	
9.875	  0.576436	  0.429541	  0.052701	
9.9375	  0.545738	  0.382297	  0.049721	
10	  0.521481	  0.321965	  0.046472	
10.0625	  0.510502	  0.272923	  0.042982	
10.125	  0.505003	  0.255096	  0.040630	
10.1875	  0.509104	  0.271988	  0.040915	
10.25	  0.527783	  0.303206	  0.043899	
10.3125	  0.553339	  0.334353	  0.047598	
10.375	  0.579661	  0.375599	  0.051083	
10.4375	  0.602256	  0.408405	  0.052897	
10.5	  0.614068	  0.409778	  0.052296	
10.5625	  0.607998	  0.389526	  0.050221	
10.625	  0.590931	  0.364012	  0.047741	
10.6875	  0.571251	  0.341003	  0.045847	
10.75	  0.541342	  0.309681	  0.044100	
10.8125	  0.496723	  0.266568	  0.040568	
10.875	  0.438164	  0.210669	  0.034900	
10.9375	  0.389620	  0.162486	  0.029964	
11	  0.361663	  0.130359	  0.026753	
11.0625	  0.341958	  0.107281	  0.024293	
11.125	  0.312416	  0.087323	  0.021480	
11.1875	  0.265542	  0.073121	  0.018189	
11.25	  0.203573	  0.064868	  0.014904	
